<?xml version="1.0" encoding="UTF-8" standalone="no"?><!DOCTYPE svg PUBLIC "-//W3C//DTD SVG 1.1//EN" "http://www.w3.org/Graphics/SVG/1.1/DTD/svg11.dtd"><svg width="100%" height="100%" viewBox="0 0 300 90" version="1.1" xmlns="http://www.w3.org/2000/svg" xmlns:xlink="http://www.w3.org/1999/xlink" xml:space="preserve" xmlns:serif="http://www.serif.com/" style="fill-rule:evenodd;clip-rule:evenodd;stroke-linejoin:round;stroke-miterlimit:2;"><path d="M296.066,34.552c-0.453,-0.452 -1.187,-0.819 -1.639,-0.819l-207.667,0c-0.452,0 -0.452,0.367 0,0.819l1.638,1.638c0.453,0.453 1.187,0.82 1.639,0.82l207.667,0c0.452,0 0.452,-0.367 0,-0.82l-1.638,-1.638Z" style="fill:#ffd064;fill-opacity:0.6;"/><path d="M202.835,68.398c-1.187,-1.526 -3.389,-2.764 -4.915,-2.764l-104.653,0c-1.526,0 -1.801,1.238 -0.614,2.764l4.301,5.53c1.186,1.526 3.389,2.765 4.915,2.765l104.653,0c1.526,0 1.801,-1.239 0.614,-2.765l-4.301,-5.53Z" style="fill:#ffd064;fill-opacity:0.6;"/><clipPath id="_clip1"><rect id="groceries" x="11.31" y="8.31" width="72.5" height="72.5"/></clipPath><g clip-path="url(#_clip1)"><g><path d="M61.155,19.743c-1.871,1.871 -5.288,8.364 -5.288,8.364l-0.259,-0.117l-10.824,-4.884c-2.242,-6.389 -1.501,-11.954 0.719,-11.954c2.185,0 4.551,5.422 4.626,5.591c-0.031,-0.205 -1.246,-8.224 2.407,-8.224c1.67,0 2.586,1.255 3.089,2.632c0.611,1.674 0.611,3.53 0.611,3.53c0,0 2.769,-6.292 6.105,-5.367c3.335,0.925 0.687,8.557 -1.186,10.429Z" style="fill:#95d6a4;fill-rule:nonzero;"/><path d="M55.034,25.805c0.396,0.862 0.575,1.586 0.574,2.185l-10.824,-4.884c-2.242,-6.389 -1.501,-11.954 0.719,-11.954c2.185,0 4.551,5.422 4.626,5.591c-0.031,-0.205 -1.246,-8.224 2.407,-8.224c1.67,0 2.586,1.255 3.089,2.632l-0.001,0.001c-1.284,-2.633 -5.032,4.957 -0.59,14.653Z" style="fill:#78c2a4;fill-rule:nonzero;"/><g><path d="M52.538,24.759c10.539,-10.54 23.484,-14.707 28.89,-9.301c5.406,5.405 1.238,18.351 -9.301,28.89c-10.539,10.539 -23.485,14.707 -28.89,9.301c-5.406,-5.406 -1.239,-18.351 9.301,-28.89Z" style="fill:#e49542;"/><g><path d="M43.243,53.649c-5.411,-5.411 -1.245,-18.348 9.301,-28.895c10.548,-10.548 23.485,-14.713 28.896,-9.303c-2.278,-2.277 -12.675,4.428 -23.223,14.976c-10.547,10.547 -17.252,20.944 -14.974,23.222Z" style="fill:#e28424;fill-rule:nonzero;"/><path d="M75.875,28.964l-7.948,-7.948c-0.916,-0.915 -2.4,-0.915 -3.316,0c-0.915,0.915 -0.915,2.4 0,3.315l7.949,7.949c0.915,0.915 2.4,0.915 3.315,0c0.916,-0.916 0.916,-2.4 0,-3.316Z" style="fill:#e28424;fill-rule:nonzero;"/><path d="M66.788,38.052l-7.949,-7.949c-0.915,-0.915 -2.399,-0.915 -3.315,0c-0.915,0.916 -0.915,2.4 0,3.316l7.948,7.948c0.916,0.916 2.4,0.916 3.316,0c0.915,-0.915 0.915,-2.4 0,-3.315Z" style="fill:#e28424;fill-rule:nonzero;"/></g></g><g><path d="M43.582,27.047c-0.099,1.597 -0.358,4.862 -0.93,7.904c-0.224,1.189 -1.032,2.178 -2.148,2.644c-1.002,0.417 -2.082,1.11 -2.082,2.151c0,0.333 0.066,0.63 0.183,0.896l-15.364,0c0.117,-0.266 0.182,-0.563 0.182,-0.896c0,-1.041 -1.079,-1.734 -2.081,-2.151c-1.116,-0.466 -1.924,-1.455 -2.148,-2.644c-0.573,-3.043 -0.831,-6.307 -0.93,-7.904c-0.044,-0.693 0.112,-1.385 0.458,-1.987c2.573,-4.473 7.779,-7.298 7.779,-7.298l0,-7.192l8.845,0l0,7.192c0,0 5.206,2.825 7.778,7.298c0.347,0.602 0.501,1.294 0.458,1.987Z" style="fill:#80b4fb;fill-rule:nonzero;"/><rect x="26.501" y="12.868" width="8.844" height="2.616" style="fill:#61a2f9;fill-rule:nonzero;"/><path d="M28.978,12.497l0,5.263c0,0 -3.756,2.827 -5.279,7.3c-0.206,0.601 -0.298,1.294 -0.271,1.987c0.059,1.595 0.211,4.86 0.551,7.904c0.131,1.188 0.61,2.178 1.272,2.644c0.592,0.417 1.231,1.11 1.231,2.151c0,0.333 -0.038,0.63 -0.108,0.896l-3.133,0c0.117,-0.266 0.182,-0.563 0.182,-0.896c0,-1.041 -1.079,-1.734 -2.081,-2.151c-1.116,-0.466 -1.924,-1.456 -2.148,-2.644c-0.574,-3.043 -0.831,-6.309 -0.93,-7.904c-0.044,-0.693 0.111,-1.386 0.458,-1.987c2.572,-4.473 7.779,-7.3 7.779,-7.3l0,-4.102l2.477,-1.161Z" style="fill:#61a2f9;fill-rule:nonzero;"/><path d="M34.325,8.645l-6.804,0c-1.063,0 -1.925,0.861 -1.925,1.925l0,3.089l10.654,0l0,-3.089c0,-1.064 -0.862,-1.925 -1.925,-1.925Z" style="fill:#db5c6e;fill-rule:nonzero;"/><path d="M31.337,8.645c-1.063,0 -1.925,0.861 -1.925,1.924l0,3.09l-3.816,0l0,-3.09c0,-1.063 0.863,-1.924 1.926,-1.924l3.815,0Z" style="fill:#d64553;fill-rule:nonzero;"/></g><path d="M79.645,47.196c0,0 -0.064,2.127 -0.276,5.435c-0.306,4.778 -0.919,12.019 -2.089,18.878c-0.894,5.246 -5.425,9.091 -10.746,9.091l-37.948,0c-5.322,0 -9.853,-3.845 -10.747,-9.091c-1.17,-6.859 -1.782,-14.1 -2.089,-18.878c-0.211,-3.308 -0.275,-5.435 -0.275,-5.435l64.17,0Z" style="fill:#db5c6e;fill-rule:nonzero;"/><path d="M79.645,47.196c0,0 -0.064,2.127 -0.276,5.435c-0.337,0.073 -0.684,0.114 -1.039,0.121c-20.514,0.394 -41.027,0.394 -61.541,0c-0.355,-0.007 -0.702,-0.048 -1.039,-0.121c-0.211,-3.308 -0.276,-5.435 -0.276,-5.435l64.171,0Z" style="fill:#d64553;fill-rule:nonzero;"/><path d="M33.274,80.6l-4.688,0c-5.322,0 -9.853,-3.845 -10.747,-9.091c-1.979,-11.607 -2.364,-24.313 -2.364,-24.313l7.928,0c0,0 0.29,12.706 1.78,24.313c0.674,5.246 4.084,9.091 8.091,9.091Z" style="fill:#d64553;fill-rule:nonzero;"/><path d="M57.369,23.784c-7.407,-0.797 -14.813,-0.89 -22.219,-0.28c-0.984,0.081 -1.352,0.79 -2.335,0.896c-0.923,8.201 -1.539,15.786 -0.616,23.987c8.39,0.902 16.78,0.902 25.17,0c0.923,-8.201 0.923,-16.402 0,-24.603Z" style="fill:#ededed;fill-rule:nonzero;"/><path d="M35.15,48.667c-0.984,-0.08 -1.968,-0.174 -2.951,-0.28c-0.924,-8.201 -0.924,-16.402 0,-24.603c0.983,-0.105 1.967,-0.199 2.951,-0.28c-0.912,8.387 -0.912,16.775 0,25.163Z" style="fill:#dbdbdb;fill-rule:nonzero;"/><path d="M78.33,49.791c-20.514,0.394 -41.027,0.394 -61.54,0c-2.551,-0.049 -4.728,-1.864 -5.235,-4.364c-0.327,-1.609 -0.327,-3.217 0,-4.826c0.507,-2.5 2.684,-4.316 5.235,-4.365c20.513,-0.394 41.026,-0.394 61.54,0c2.55,0.049 4.728,1.865 5.235,4.365c0.326,1.609 0.326,3.217 0,4.826c-0.507,2.5 -2.685,4.315 -5.235,4.364Z" style="fill:#ffd064;fill-rule:nonzero;"/><path d="M22.033,49.882c-1.748,-0.026 -3.497,-0.057 -5.244,-0.091c-2.55,-0.049 -4.728,-1.864 -5.234,-4.364c-0.327,-1.609 -0.327,-3.217 0,-4.826c0.506,-2.5 2.684,-4.316 5.234,-4.364c1.747,-0.034 3.496,-0.065 5.244,-0.091c-2.082,0.517 -3.738,2.191 -4.177,4.363c-0.34,1.671 -0.34,3.339 0,5.008c0.439,2.172 2.095,3.848 4.177,4.365Z" style="fill:#ffc250;fill-rule:nonzero;"/><g><path d="M33.095,56.02l-0.068,0c-1.903,0.004 -3.455,1.539 -3.512,3.441c-0.089,2.958 -0.089,5.916 0,8.875c0.057,1.902 1.609,3.436 3.512,3.441l0.068,0c1.903,-0.005 3.456,-1.539 3.513,-3.441c0.088,-2.959 0.088,-5.917 0,-8.875c-0.057,-1.902 -1.61,-3.437 -3.513,-3.441Z" style="fill:#365e7d;fill-rule:nonzero;"/><path d="M47.594,56.02l-0.069,0c-1.902,0.004 -3.455,1.539 -3.512,3.441c-0.088,2.958 -0.088,5.916 0,8.875c0.057,1.902 1.61,3.436 3.512,3.441l0.069,0c1.902,-0.005 3.455,-1.539 3.512,-3.441c0.089,-2.959 0.089,-5.917 0,-8.875c-0.057,-1.902 -1.61,-3.437 -3.512,-3.441Z" style="fill:#365e7d;fill-rule:nonzero;"/><path d="M62.092,56.02l-0.068,0c-1.903,0.004 -3.455,1.539 -3.512,3.441c-0.089,2.958 -0.089,5.916 0,8.875c0.057,1.902 1.609,3.436 3.512,3.441l0.068,0c1.903,-0.005 3.455,-1.539 3.513,-3.441c0.088,-2.959 0.088,-5.917 0,-8.875c-0.058,-1.902 -1.61,-3.437 -3.513,-3.441Z" style="fill:#365e7d;fill-rule:nonzero;"/></g><g><g><path d="M29.248,41.084c-0.769,-0.388 -1.573,-0.681 -2.411,-0.877c-1.733,-0.406 -3.495,0.55 -4.145,2.206c-3.245,8.27 -6.282,16.616 -9.112,25.037c-0.567,1.686 0.168,3.552 1.756,4.354c0.769,0.389 1.573,0.681 2.412,0.878c1.732,0.406 3.494,-0.55 4.144,-2.207c3.245,-8.27 6.283,-16.615 9.112,-25.036c0.567,-1.687 -0.168,-3.552 -1.756,-4.355Z" style="fill:#407093;fill-rule:nonzero;"/><path d="M16.337,72.248c-0.341,-0.13 -0.675,-0.278 -1.001,-0.444c-1.589,-0.801 -2.324,-2.668 -1.756,-4.354c2.83,-8.42 5.867,-16.766 9.112,-25.037c0.65,-1.656 2.412,-2.612 4.144,-2.206c0.356,0.083 0.706,0.185 1.049,0.304c-1.126,0.299 -2.089,1.124 -2.539,2.272c-3.381,8.619 -6.546,17.315 -9.496,26.09c-0.393,1.17 -0.185,2.422 0.487,3.375Z" style="fill:#365e7d;fill-rule:nonzero;"/></g><g><path d="M68.283,40.206c-0.839,0.197 -1.643,0.489 -2.412,0.878c-1.587,0.802 -2.323,2.668 -1.756,4.354c2.83,8.421 5.868,16.767 9.113,25.037c0.65,1.656 2.412,2.612 4.144,2.206c0.839,-0.196 1.643,-0.489 2.412,-0.877c1.587,-0.803 2.323,-2.668 1.756,-4.355c-2.83,-8.421 -5.868,-16.766 -9.113,-25.036c-0.65,-1.657 -2.412,-2.613 -4.144,-2.207Z" style="fill:#407093;fill-rule:nonzero;"/><path d="M78.424,72.378c-0.345,0.119 -0.696,0.22 -1.052,0.304c-1.732,0.406 -3.495,-0.551 -4.144,-2.207c-3.244,-8.27 -6.282,-16.615 -9.113,-25.037c-0.567,-1.686 0.169,-3.551 1.756,-4.354c0.327,-0.165 0.66,-0.312 0.999,-0.441c-0.67,0.953 -0.877,2.204 -0.484,3.372c2.95,8.776 6.115,17.472 9.496,26.09c0.45,1.15 1.415,1.975 2.542,2.273Z" style="fill:#365e7d;fill-rule:nonzero;"/></g></g><path d="M36.041,14.721l-10.236,0c-0.587,0 -1.062,-0.476 -1.062,-1.062c0,-0.587 0.475,-1.062 1.062,-1.062l10.236,0c0.587,0 1.062,0.475 1.062,1.062c0,0.586 -0.475,1.062 -1.062,1.062Z" style="fill:#db5c6e;fill-rule:nonzero;"/><path d="M28.994,14.721l-3.189,0c-0.588,0 -1.062,-0.476 -1.062,-1.062c0,-0.587 0.474,-1.062 1.062,-1.062l3.189,0c-0.588,0 -1.062,0.475 -1.062,1.062c0,0.586 0.474,1.062 1.062,1.062Z" style="fill:#d64553;fill-rule:nonzero;"/></g></g><path d="M113.271,27.473c0,-3.96 -2.787,-5.908 -6.598,-5.908l-8.519,0l0,20.996l9.389,0c4.08,0 6.658,-2.427 6.658,-6.178c0,-2.371 -1.199,-4.11 -3.387,-4.859c1.647,-0.809 2.457,-2.28 2.457,-4.051Zm-6.838,-2.882c2.041,0 3.421,0.901 3.421,2.972c-0.03,2.042 -1.41,2.822 -3.421,2.822l-4.802,0l0,-5.794l4.802,0Zm0.51,8.64c0.96,0 1.921,0.06 2.731,0.661c0.72,0.6 1.08,1.441 1.08,2.491c-0.09,2.011 -1.47,3.122 -3.421,3.122l-5.702,0l0,-6.274l5.312,0Z" style="fill-rule:nonzero;"/><path d="M127.494,28.105l0,8.28c0,2.31 -1.591,3.81 -3.662,3.81c-1.921,0 -3.151,-1.41 -3.121,-3.72l0,-8.37l-3.297,0l0,8.37c0,3.54 1.409,6.326 5.398,6.326c2.041,0 4.022,-0.629 5.012,-2.576c0,3.116 2.637,2.726 4.497,2.397l-0.03,-2.127c-1.38,0.149 -1.53,-0.33 -1.53,-2.07l0,-10.32l-3.267,0Z" style="fill-rule:nonzero;"/><path d="M146.064,40.345c0,2.426 1.977,2.636 4.227,2.247l-0.06,-2.247c-1.65,0 -1.5,-0.63 -1.5,-2.281l0,-17.459l-3.267,0l0,8.399c-1.32,-0.779 -2.731,-1.109 -4.022,-1.109c-3.721,0 -6.838,2.936 -6.838,7.408c0,4.052 2.338,7.648 6.658,7.558c2.131,0 3.842,-0.809 4.802,-2.936l0,0.42Zm-0.54,-4.412c0,2.191 -1.5,4.022 -3.752,4.022c-2.671,0 -3.931,-2.161 -3.931,-4.652c0,-2.941 1.86,-4.532 4.112,-4.562c1.14,-0.03 2.401,0.33 3.571,1.141l0,4.051Z" style="fill-rule:nonzero;"/><path d="M163.464,43.402c0,3.362 -1.651,4.503 -3.902,4.533c-1.68,0.03 -3.661,-0.6 -5.519,-1.501l-0.48,2.64c1.948,1.078 4.108,1.647 6.089,1.617c3.782,-0.03 6.959,-2.217 6.959,-7.229l0,-14.189c-1.888,-0.809 -3.897,-1.318 -5.968,-1.348c-4.442,-0.09 -8.099,2.277 -8.099,7.528c0,4.772 2.847,7.588 6.538,7.618c1.381,0 2.882,-0.359 4.382,-1.198l0,1.529Zm-0.06,-4.287c-1.2,0.78 -2.431,1.17 -3.572,1.14c-2.251,-0.03 -4.021,-1.651 -4.021,-4.802c0.03,-3.241 1.77,-4.802 4.532,-4.802c1.02,0 2.041,0.18 3.061,0.54l0,7.924Z" style="fill-rule:nonzero;"/><path d="M177.381,27.775c-3.93,0 -7.407,2.426 -7.497,7.258c-0.15,4.892 3.357,7.948 8.127,7.858c1.83,0 3.78,-0.479 5.46,-1.228l-0.42,-2.429c-1.71,0.751 -3.45,0.991 -5.25,0.901c-2.64,0 -4.71,-1.561 -4.71,-4.204l10.68,0c0.96,-4.799 -1.32,-8.156 -6.39,-8.156Zm-0.03,2.516c2.07,0 3.87,1.142 3.78,3.334l-7.98,0c0.45,-2.282 2.04,-3.334 4.2,-3.334Z" style="fill-rule:nonzero;"/><path d="M191.961,23.665l-2.877,0l-0.33,4.44l-2.94,0l0,2.127l2.94,0.209l0,6.593c0,5.678 3.867,6.817 8.817,5.288l-0.33,-2.459c-2.97,1.051 -5.28,0.812 -5.28,-2.89l0,-6.532l5.01,0l0,-2.336l-5.01,0l0,-4.44Z" style="fill-rule:nonzero;"/><path d="M220.101,31.315l-8.34,0l0,-6.694l9.18,0l0,-3.056l-12.657,0l0,20.996l3.477,0l0,-8.16l8.34,0l0,-3.086Z" style="fill-rule:nonzero;"/><path d="M238.161,35.273c0,-5.071 -3.897,-7.588 -7.769,-7.528c-3.781,0.06 -7.498,2.547 -7.498,7.528c0,5.042 3.807,7.558 7.618,7.558c3.812,0 7.649,-2.516 7.649,-7.558Zm-12.03,0c0,-3.061 2.1,-4.592 4.261,-4.652c2.221,-0.06 4.502,1.501 4.502,4.652c0,3.091 -2.161,4.652 -4.322,4.682c-2.221,0.03 -4.441,-1.531 -4.441,-4.682Z" style="fill-rule:nonzero;"/><path d="M255.891,35.273c0,-5.071 -3.897,-7.588 -7.769,-7.528c-3.781,0.06 -7.498,2.547 -7.498,7.528c0,5.042 3.807,7.558 7.618,7.558c3.812,0 7.649,-2.516 7.649,-7.558Zm-12.03,0c0,-3.061 2.1,-4.592 4.261,-4.652c2.221,-0.06 4.502,1.501 4.502,4.652c0,3.091 -2.161,4.652 -4.322,4.682c-2.221,0.03 -4.441,-1.531 -4.441,-4.682Z" style="fill-rule:nonzero;"/><path d="M269.814,40.345c0,2.426 1.977,2.636 4.227,2.247l-0.06,-2.247c-1.65,0 -1.5,-0.63 -1.5,-2.281l0,-17.459l-3.267,0l0,8.399c-1.32,-0.779 -2.731,-1.109 -4.022,-1.109c-3.721,0 -6.838,2.936 -6.838,7.408c0,4.052 2.338,7.648 6.658,7.558c2.131,0 3.842,-0.809 4.802,-2.936l0,0.42Zm-0.54,-4.412c0,2.191 -1.5,4.022 -3.752,4.022c-2.671,0 -3.931,-2.161 -3.931,-4.652c0,-2.941 1.86,-4.532 4.112,-4.562c1.14,-0.03 2.401,0.33 3.571,1.141l0,4.051Z" style="fill-rule:nonzero;"/><path d="M276.294,38.303c0.24,3.6 3.417,4.618 6.628,4.618c3.212,0 6.299,-1.378 6.299,-4.588c0,-3.42 -2.937,-3.929 -5.968,-4.318c-2.252,-0.27 -3.422,-0.54 -3.452,-1.742c-0.09,-1.291 1.47,-2.012 2.971,-2.012c1.531,0 3.272,0.451 3.272,1.892l2.877,0c0.09,-2.88 -2.817,-4.348 -6.149,-4.348c-3.151,0 -6.148,1.438 -6.148,4.528c0.09,3.269 3.417,3.599 6.388,3.989c1.891,0.24 3.242,0.63 3.242,1.951c-0.09,1.772 -1.861,2.222 -3.452,2.222c-1.561,0 -3.211,-0.691 -3.301,-2.192l-3.207,0Z" style="fill-rule:nonzero;"/><path d="M99.311,67.027c0.144,2.502 2.716,3.472 5.021,3.472c2.34,0 4.732,-1.114 4.786,-3.598c0.054,-2.629 -2.356,-3.115 -4.786,-3.457c-1.657,-0.198 -3.818,-0.342 -3.818,-2.431c0,-1.89 1.819,-2.682 3.584,-2.682c1.584,0 3.691,0.54 3.835,2.484l0.843,0c-0.143,-2.376 -2.338,-3.292 -4.678,-3.292c-2.107,0 -4.499,1.096 -4.499,3.508c0,2.521 2.284,2.899 4.589,3.187c1.962,0.288 4.086,0.54 4.032,2.665c-0.054,1.98 -2.106,2.826 -3.924,2.826c-1.711,0 -4.033,-0.702 -4.177,-2.682l-0.808,0Z" style="fill-rule:nonzero;"/><path d="M113.168,58.999l-0.789,0l-0.072,2.646l-1.98,0l0,0.664l1.98,0.054l0,4.698c0,3.15 1.707,4.014 4.659,3.006l-0.126,-0.756c-2.412,0.864 -3.672,0.378 -3.672,-2.268l0,-4.68l3.366,0l0,-0.718l-3.366,0l0,-2.646Z" style="fill-rule:nonzero;"/><path d="M124.654,68.755c-0.054,1.367 0.323,1.888 1.798,1.654l-0.036,-0.592c-1.151,0.143 -1.098,-0.45 -1.098,-1.495l0.018,-3.959c0,-2.162 -1.779,-2.916 -3.651,-2.916c-1.134,0 -2.286,0.269 -3.096,0.718l0.198,0.72c0.738,-0.432 1.782,-0.666 2.79,-0.666c1.386,0 2.934,0.432 2.934,2.126l0,1.33c-0.99,-0.521 -2.142,-0.754 -3.222,-0.754c-1.746,0 -3.366,0.952 -3.366,2.915c0,1.657 1.566,2.627 3.078,2.627c1.44,0 2.97,-0.449 3.653,-1.708Zm-0.143,-1.153c-0.378,1.495 -1.962,2.125 -3.366,2.125c-1.206,0 -2.322,-0.594 -2.376,-1.927c-0.054,-1.441 1.332,-2.161 2.628,-2.161c1.026,-0.018 2.178,0.288 3.114,0.792l0,1.171Z" style="fill-rule:nonzero;"/><path d="M135.652,61.717l0,-0.072l-0.882,0l-3.294,7.769l-0.018,0l-3.564,-7.769l-0.918,0l0,0.072l4.05,8.707l-0.594,1.388c-0.576,1.46 -1.26,2.738 -3.042,1.929l-0.18,0.773c2.79,1.241 3.672,-1.639 4.536,-3.694l3.906,-9.103Z" style="fill-rule:nonzero;"/><path d="M149.546,70.319l0,-5.166c0,-2.43 -1.654,-3.724 -3.454,-3.724c-1.153,0 -2.521,0.323 -3.242,1.618l0,-5.902l-0.843,0l0,13.174l0.843,0l0,-5.058c0,-1.764 1.135,-3.06 2.99,-3.06c1.8,0 2.827,1.08 2.827,2.952l0,5.166l0.879,0Z" style="fill-rule:nonzero;"/><path d="M156.19,61.465c-2.485,0 -4.248,1.565 -4.391,4.211c-0.144,3.115 1.816,4.823 4.733,4.823c1.008,0 2.16,-0.251 3.168,-0.7l-0.18,-0.738c-0.846,0.378 -1.836,0.648 -3.006,0.666c-2.287,-0.054 -3.854,-1.207 -3.854,-3.71l7.363,0c0.485,-2.897 -1.024,-4.534 -3.833,-4.552Zm-3.512,3.816c0.199,-1.945 1.531,-3.098 3.476,-3.098c1.944,0 3.348,1.045 3.151,3.098l-6.627,0Z" style="fill-rule:nonzero;"/><path d="M168.412,68.755c-0.054,1.367 0.323,1.888 1.798,1.654l-0.036,-0.592c-1.151,0.143 -1.098,-0.45 -1.098,-1.495l0.018,-3.959c0,-2.162 -1.779,-2.916 -3.651,-2.916c-1.134,0 -2.286,0.269 -3.096,0.718l0.198,0.72c0.738,-0.432 1.782,-0.666 2.79,-0.666c1.386,0 2.934,0.432 2.934,2.126l0,1.33c-0.99,-0.521 -2.142,-0.754 -3.222,-0.754c-1.746,0 -3.366,0.952 -3.366,2.915c0,1.657 1.566,2.627 3.078,2.627c1.44,0 2.97,-0.449 3.653,-1.708Zm-0.143,-1.153c-0.378,1.495 -1.962,2.125 -3.366,2.125c-1.206,0 -2.322,-0.594 -2.376,-1.927c-0.054,-1.441 1.332,-2.161 2.628,-2.161c1.026,-0.018 2.178,0.288 3.114,0.792l0,1.171Z" style="fill-rule:nonzero;"/><path d="M172.013,57.127l0,9.936c0,2.466 0.664,3.652 3.309,3.274l-0.036,-0.736c-2.088,0.287 -2.394,-0.72 -2.394,-2.556l0,-9.918l-0.879,0Z" style="fill-rule:nonzero;"/><path d="M178.346,58.999l-0.789,0l-0.072,2.646l-1.98,0l0,0.664l1.98,0.054l0,4.698c0,3.15 1.707,4.014 4.659,3.006l-0.126,-0.756c-2.412,0.864 -3.672,0.378 -3.672,-2.268l0,-4.68l3.366,0l0,-0.718l-3.366,0l0,-2.646Z" style="fill-rule:nonzero;"/><path d="M191.378,70.319l0,-5.166c0,-2.43 -1.654,-3.724 -3.454,-3.724c-1.153,0 -2.521,0.323 -3.242,1.618l0,-5.902l-0.843,0l0,13.174l0.843,0l0,-5.058c0,-1.764 1.135,-3.06 2.99,-3.06c1.8,0 2.827,1.08 2.827,2.952l0,5.166l0.879,0Z" style="fill-rule:nonzero;"/><path d="M201.64,61.717l0,-0.072l-0.882,0l-3.294,7.769l-0.018,0l-3.564,-7.769l-0.918,0l0,0.072l4.05,8.707l-0.594,1.388c-0.576,1.46 -1.26,2.738 -3.042,1.929l-0.18,0.773c2.79,1.241 3.672,-1.639 4.536,-3.694l3.906,-9.103Z" style="fill-rule:nonzero;"/></svg>