<?xml version="1.0" encoding="UTF-8" standalone="no"?><!DOCTYPE svg PUBLIC "-//W3C//DTD SVG 1.1//EN" "http://www.w3.org/Graphics/SVG/1.1/DTD/svg11.dtd"><svg width="100%" height="100%" viewBox="0 0 621 400" version="1.1" xmlns="http://www.w3.org/2000/svg" xmlns:xlink="http://www.w3.org/1999/xlink" xml:space="preserve" xmlns:serif="http://www.serif.com/" style="fill-rule:evenodd;clip-rule:evenodd;stroke-linejoin:round;stroke-miterlimit:2;"><path d="M620.241,13.289c0,-7.334 -5.954,-13.289 -13.289,-13.289l-593.663,0c-7.334,0 -13.289,5.955 -13.289,13.289l0,373.395c0,7.334 5.955,13.289 13.289,13.289l593.663,0c7.335,0 13.289,-5.955 13.289,-13.289l0,-373.395Z" style="fill:#ffeaa6;"/><g><g><g><g><path d="M49.172,60.363c0,-9.139 7.409,-16.548 16.548,-16.548c9.139,0 16.548,7.409 16.548,16.548c0,9.139 -7.409,16.548 -16.548,16.548c-9.139,0 -16.548,-7.409 -16.548,-16.548Zm40.639,30.391c9.033,-4.825 14.64,-16.93 14.64,-29.264c0,-17.04 -13.813,-30.853 -30.853,-30.853c-8.824,0 -16.783,3.704 -22.406,9.642c-10.185,-5.476 -25.634,10.376 -19.444,21.367c1.492,2.649 4.014,5.549 -0.801,10.085c-3.01,2.835 -5.389,7.302 -5.389,11.131c0,9.755 7.908,17.663 17.663,17.663c4.367,0 8.423,-1.517 11.445,-4.211c13.125,-11.696 17.502,2.435 35.145,-5.56Z" style="fill:#e4e8ed;"/><path d="M49.172,60.363c0,-9.139 7.409,-16.548 16.548,-16.548c9.139,0 16.548,7.409 16.548,16.548c0,9.139 -7.409,16.548 -16.548,16.548c-9.139,0 -16.548,-7.409 -16.548,-16.548Zm16.548,18.929c10.453,0 18.929,-8.475 18.929,-18.929c0,-10.453 -8.476,-18.929 -18.929,-18.929c-10.454,0 -18.929,8.476 -18.929,18.929c0,10.454 8.475,18.929 18.929,18.929Z" style="fill:#c8d1da;"/><path d="M54.012,48.664c6.457,-6.457 16.942,-6.457 23.399,0c6.457,6.457 6.457,16.942 0,23.399c-6.457,6.457 -16.942,6.457 -23.399,0c-6.457,-6.457 -6.457,-16.942 0,-23.399Z" style="fill:#ffe477;"/><path d="M38.147,34.955c2.891,-0.141 5.472,-1.984 5.764,-4.115c0.291,-2.131 -1.816,-3.744 -4.707,-3.603c-2.891,0.142 -5.471,1.984 -5.763,4.116c-0.292,2.131 1.815,3.744 4.706,3.602Z" style="fill:#e4e8ed;"/><path d="M48.41,39.316c-9.945,-1.768 -22.309,12.302 -16.662,22.33c1.492,2.649 4.014,5.549 -0.801,10.085c-3.01,2.835 -5.389,7.302 -5.389,11.131c0,10.52 9.056,18.591 19.469,17.575c-8.926,-0.886 -15.897,-8.416 -15.897,-17.575c0,-3.829 2.379,-8.296 5.389,-11.131c4.815,-4.536 2.293,-7.436 0.801,-10.085c-4.984,-8.85 4.06,-20.848 13.09,-22.33Z" style="fill:#c8d1da;"/><path d="M67.506,76.815c-19.485,-2.091 -19.485,-30.813 0,-32.904c-9.772,-1.048 -18.334,6.581 -18.334,16.452c0,9.871 8.563,17.5 18.334,16.452Z" style="fill:#ffd442;"/><path d="M38.147,34.955c0.511,-0.025 1.012,-0.103 1.493,-0.227c-4.662,-1.36 -2.622,-6.168 1.643,-7.264c-0.62,-0.18 -1.323,-0.264 -2.079,-0.227c-2.891,0.142 -5.471,1.985 -5.763,4.116c-0.292,2.131 1.815,3.744 4.706,3.602Z" style="fill:#c8d1da;"/></g><g><path d="M35.091,93.43c-3.032,-2.675 -4.77,-6.527 -4.77,-10.568l2.381,0c0,3.358 1.445,6.559 3.965,8.783l-1.576,1.785Zm-2.389,-12.949l-2.381,0l0,-2.381l2.381,0l0,2.381Zm66.987,-13.038l-2.381,0l0,-2.381l2.381,0l0,2.381Zm0,-4.762l-2.381,0c0,-7.14 -3.073,-13.947 -8.432,-18.676l1.576,-1.785c5.87,5.181 9.237,12.638 9.237,20.461Zm-24.898,-3.777c-1.299,-5.05 -4.605,-7.946 -9.071,-7.946l0,-2.381c2.894,0 5.483,0.978 7.489,2.829c1.811,1.672 3.156,4.06 3.888,6.905l-2.306,0.593Zm-11.452,-7.945l-2.381,0l0,-2.381l2.381,0l0,2.381Z" style="fill:#fff;fill-rule:nonzero;"/></g></g><g><path d="M31.764,72.597c5.048,-4.755 2.973,-8.243 1.458,-10.79c-0.155,-0.259 -0.3,-0.504 -0.436,-0.745c-2.125,-3.773 -1.522,-8.722 1.613,-13.237l-1.956,-1.358c-3.668,5.283 -4.315,11.176 -1.732,15.763c0.15,0.266 0.31,0.535 0.464,0.794c1.461,2.455 2.615,4.394 -1.044,7.84c-3.447,3.247 -5.763,8.069 -5.763,11.998c0,4.919 1.884,9.575 5.305,13.109l1.711,-1.655c-2.989,-3.089 -4.635,-7.156 -4.635,-11.454c0,-3.262 2.062,-7.483 5.015,-10.265Z" style="fill-rule:nonzero;"/><path d="M73.598,29.446c-4.48,0 -8.814,0.907 -12.882,2.695c-3.664,1.611 -6.95,3.86 -9.78,6.693c-2.588,-1.116 -5.549,-1.156 -8.62,-0.104c-3.002,1.028 -5.957,3.072 -8.32,5.757l1.787,1.573c3.659,-4.156 9.866,-7.41 14.845,-4.732l0.802,0.431l0.626,-0.661c5.662,-5.978 13.312,-9.271 21.542,-9.271c16.356,0 29.663,13.307 29.663,29.663c0,11.756 -5.241,22.87 -13.04,27.656l1.245,2.029c4.278,-2.624 7.881,-6.891 10.42,-12.339c2.457,-5.272 3.756,-11.27 3.756,-17.346c0,-17.669 -14.375,-32.044 -32.044,-32.044Z" style="fill-rule:nonzero;"/><path d="M71.566,91.149c-5.317,-1.171 -10.339,-2.277 -17.692,4.276c-2.828,2.521 -6.612,3.909 -10.653,3.909c-3.738,0 -7.262,-1.22 -10.19,-3.53l-1.474,1.87c3.352,2.644 7.386,4.041 11.664,4.041c4.626,0 8.972,-1.603 12.237,-4.512c6.445,-5.744 10.483,-4.854 15.596,-3.728c4.698,1.034 10.023,2.207 18.12,-1.149l-0.912,-2.2c-7.404,3.069 -12.127,2.029 -16.696,1.023Z" style="fill-rule:nonzero;"/><path d="M65.72,75.721c-3.442,0 -6.696,-1.114 -9.409,-3.22l-1.46,1.881c3.135,2.433 6.893,3.72 10.869,3.72c9.781,0 17.738,-7.958 17.738,-17.739c0,-9.781 -7.957,-17.738 -17.738,-17.738c-9.781,0 -17.739,7.957 -17.739,17.738c0,4.618 1.766,8.992 4.973,12.315l1.713,-1.653c-2.776,-2.877 -4.305,-6.664 -4.305,-10.662c0,-8.468 6.89,-15.357 15.358,-15.357c8.468,0 15.357,6.889 15.357,15.357c0,8.468 -6.889,15.358 -15.357,15.358Z" style="fill-rule:nonzero;"/><path d="M37.793,36.155c0.136,0 0.274,-0.004 0.412,-0.011c3.489,-0.17 6.513,-2.429 6.885,-5.142c0.162,-1.181 -0.2,-2.323 -1.017,-3.215c-1.104,-1.204 -2.9,-1.839 -4.927,-1.739c-3.489,0.171 -6.513,2.43 -6.885,5.143c-0.162,1.181 0.2,2.323 1.018,3.215c1.028,1.122 2.657,1.749 4.514,1.749Zm-3.173,-4.641c0.214,-1.561 2.34,-2.975 4.642,-3.088c0.098,-0.004 0.195,-0.007 0.291,-0.007c1.177,0 2.196,0.357 2.764,0.976c0.34,0.372 0.479,0.803 0.414,1.283c-0.214,1.561 -2.34,2.975 -4.642,3.088c-1.3,0.064 -2.441,-0.298 -3.055,-0.969c-0.34,-0.371 -0.48,-0.803 -0.414,-1.283Z" style="fill-rule:nonzero;"/></g></g><g><path d="M71.772,60.074c-0.347,0 -0.628,-0.281 -0.628,-0.628c0,-0.691 -0.562,-1.254 -1.254,-1.254c-0.693,0 -1.255,0.563 -1.255,1.254c0,0.347 -0.281,0.628 -0.627,0.628c-0.347,0 -0.628,-0.281 -0.628,-0.628c0,-1.383 1.126,-2.509 2.51,-2.509c1.384,0 2.509,1.126 2.509,2.509c0,0.348 -0.281,0.628 -0.627,0.628Z" style="fill:#6d4c41;fill-rule:nonzero;"/><path d="M64.244,60.074c-0.347,0 -0.628,-0.281 -0.628,-0.628c0,-0.691 -0.563,-1.254 -1.254,-1.254c-0.692,0 -1.255,0.563 -1.255,1.254c0,0.347 -0.281,0.628 -0.627,0.628c-0.347,0 -0.628,-0.281 -0.628,-0.628c0,-1.383 1.126,-2.509 2.51,-2.509c1.384,0 2.509,1.126 2.509,2.509c0,0.348 -0.281,0.628 -0.627,0.628Z" style="fill:#6d4c41;fill-rule:nonzero;"/></g><path d="M73.262,63.46c-0.119,-0.157 -0.303,-0.25 -0.499,-0.25l-13.274,0c-0.197,0 -0.382,0.092 -0.5,0.249c-0.12,0.158 -0.158,0.36 -0.105,0.549c0.907,3.224 3.885,5.476 7.24,5.476c3.355,0 6.334,-2.252 7.241,-5.476c0.054,-0.189 0.016,-0.391 -0.103,-0.548Z" style="fill:#fafafa;fill-rule:nonzero;"/></g><text x="15.659px" y="21.522px" style="font-family:'Arial-BoldMT', 'Arial', sans-serif;font-weight:700;font-size:12px;">Y<tspan x="22.773px 30.103px " y="21.522px 21.522px ">ou</tspan> are awesome</text></svg>